<svg width="147" height="28" viewBox="0 0 147 28" fill="none" xmlns="http://www.w3.org/2000/svg">
<path d="M3.92126 1.68L2.96126 1.36V3.04L3.92126 3.4V1.68ZM2.48126 1.68L1.52126 1.36V3.04L2.48126 3.4V1.68ZM4.64126 8.08H5.88126V18.48H4.64126V8.08ZM3.88126 21.28H5.88126V22.16H4.40126L4.28126 22.36L3.56126 23.4H0.961263V22.48H3.08126L3.16126 22.4L3.88126 21.28ZM14.0813 20.64L14.3613 20.36L14.8013 19.92V16.16H17.0413V17.76C16.8279 17.84 16.7213 18 16.7213 18.24C16.7213 18.4 16.7746 18.5333 16.8813 18.64C16.9879 18.7467 17.1213 18.8 17.2813 18.8C17.4413 18.8 17.5746 18.7467 17.6813 18.64C17.7879 18.5333 17.8413 18.4 17.8413 18.24C17.8413 18 17.7213 17.84 17.4813 17.76V16.16H19.7213V21.96L13.6813 28H0.961263V25.76H5.88126C5.98793 26 6.16126 26.12 6.40126 26.12C6.48126 26.12 6.56126 26.0933 6.64126 26.04C6.72126 25.9867 6.78793 25.92 6.84126 25.84C6.92126 25.7333 6.96126 25.64 6.96126 25.56C6.96126 25.4 6.8946 25.2667 6.76126 25.16C6.6546 25.0533 6.5346 25 6.40126 25C6.16126 25 5.98793 25.1067 5.88126 25.32H0.961263V24.28H4.08126L4.20126 24.08L4.88126 23.08H14.6013C14.7079 23.32 14.8813 23.44 15.1213 23.44C15.2813 23.44 15.4146 23.3867 15.5213 23.28C15.6279 23.1467 15.6813 23.0133 15.6813 22.88C15.6813 22.72 15.6279 22.5867 15.5213 22.48C15.4146 22.3733 15.2813 22.32 15.1213 22.32C14.8813 22.32 14.7079 22.4267 14.6013 22.64H12.0813L14.0813 20.64ZM0.961263 22.04V-1.90735e-06H5.88126V7.64H4.20126V18.96H5.88126V20.8H3.64126L3.60126 20.92L2.84126 22.04H0.961263ZM38.816 5.24L37.856 4.92V6.6L38.816 6.96V5.24ZM37.376 5.24L36.416 4.92V6.6L37.376 6.96V5.24ZM23.496 18.92H22.016V18H23.976L24.736 19.12L24.816 19.24H26.936V20.12H24.296L23.616 19.12L23.496 18.92ZM38.576 19.24H40.776V28H35.856V19.24H38.096V21.04C37.8826 21.1467 37.776 21.32 37.776 21.56C37.776 21.72 37.8293 21.8533 37.936 21.96C38.0426 22.0667 38.176 22.12 38.336 22.12C38.496 22.12 38.6293 22.0667 38.736 21.96C38.8426 21.8533 38.896 21.72 38.896 21.56C38.896 21.32 38.7893 21.1467 38.576 21.04V19.24ZM36.256 17L37.216 17.32V15.64L36.256 15.28V17ZM37.776 13.48L37.696 13.4H35.856V4.92H30.096L28.736 6.28L27.376 7.64H24.256V10.32C24.016 10.4 23.896 10.56 23.896 10.8C23.896 10.96 23.9493 11.1067 24.056 11.24C24.1893 11.3467 24.3226 11.4 24.456 11.4C24.616 11.4 24.7493 11.3467 24.856 11.24C24.9626 11.1067 25.016 10.96 25.016 10.8C25.016 10.56 24.9093 10.4 24.696 10.32V8.08H26.936V13.84H37.456L38.216 14.96L38.256 15.08H40.776V18.76H25.056L24.296 17.64L24.216 17.56H22.016V16.52H25.536C25.6426 16.76 25.816 16.88 26.056 16.88C26.1893 16.88 26.3093 16.8267 26.416 16.72C26.5493 16.5867 26.616 16.4533 26.616 16.32C26.616 16.2133 26.5893 16.12 26.536 16.04C26.4826 15.9333 26.4026 15.8667 26.296 15.84C26.216 15.7867 26.136 15.76 26.056 15.76C25.816 15.76 25.6426 15.8667 25.536 16.08H22.016V6.04L27.336 0.719998L28.056 -1.90735e-06H40.776V2.24H38.816C38.7093 2 38.536 1.88 38.296 1.88C38.1626 1.88 38.0293 1.94667 37.896 2.08C37.7893 2.18667 37.736 2.32 37.736 2.48C37.736 2.61333 37.7893 2.73333 37.896 2.84C38.0293 2.94667 38.1626 3 38.296 3C38.536 3 38.7093 2.89333 38.816 2.68H40.776V14.6H38.496L37.776 13.48ZM26.936 21.04V28H24.696V25.76C24.9093 25.6533 25.016 25.48 25.016 25.24C25.016 25.16 24.9893 25.08 24.936 25C24.9093 24.8933 24.8426 24.8133 24.736 24.76C24.656 24.7067 24.5626 24.68 24.456 24.68C24.3226 24.68 24.1893 24.7467 24.056 24.88C23.9493 24.9867 23.896 25.1067 23.896 25.24C23.896 25.48 24.016 25.6533 24.256 25.76V28H22.016V19.84H23.016L23.696 20.84L23.816 21.04H26.936ZM49.9506 15.28V17L50.9106 17.32V15.64L49.9506 15.28ZM48.5506 15.28V17L49.5106 17.32V15.64L48.5506 15.28ZM44.5506 18.92H43.0706V18H45.0306L45.7906 19.12L45.8706 19.24H47.9906V20.12H45.3506L44.6706 19.12L44.5506 18.92ZM46.2306 18.76H46.1106L45.3506 17.64L45.2706 17.56H43.0706V6.04L49.1106 -1.90735e-06H61.8306V2.24H58.1906C58.1106 2 57.9506 1.88 57.7106 1.88C57.5506 1.88 57.4173 1.94667 57.3106 2.08C57.204 2.18667 57.1506 2.32 57.1506 2.48C57.1506 2.61333 57.204 2.73333 57.3106 2.84C57.4173 2.94667 57.5506 3 57.7106 3C57.9506 3 58.1106 2.89333 58.1906 2.68H61.8306V14.6H59.6306V11.16C59.844 11.08 59.9506 10.92 59.9506 10.68C59.9506 10.52 59.884 10.3867 59.7506 10.28C59.644 10.1467 59.524 10.08 59.3906 10.08C59.284 10.08 59.1773 10.12 59.0706 10.2C58.9906 10.2533 58.924 10.32 58.8706 10.4C58.844 10.48 58.8306 10.5733 58.8306 10.68C58.8306 10.92 58.9373 11.08 59.1506 11.16V14L58.8306 13.48L58.7506 13.4H56.9106V4.92H48.1906C48.084 4.68 47.9106 4.56 47.6706 4.56C47.5106 4.56 47.3773 4.62667 47.2706 4.76C47.164 4.86667 47.1106 5 47.1106 5.16C47.1106 5.29333 47.164 5.41333 47.2706 5.52C47.3773 5.62667 47.5106 5.68 47.6706 5.68C47.9106 5.68 48.084 5.57333 48.1906 5.36H50.7106L47.9906 8.08V13.84H58.5106L59.2706 14.96L59.3106 15.08H61.8306V16.08H57.8706C57.7906 15.8667 57.6173 15.76 57.3506 15.76C57.2173 15.76 57.084 15.8133 56.9506 15.92C56.844 16.0267 56.7906 16.16 56.7906 16.32C56.7906 16.4 56.804 16.48 56.8306 16.56C56.884 16.6133 56.9373 16.6667 56.9906 16.72C57.044 16.7733 57.0973 16.8133 57.1506 16.84C57.2306 16.8667 57.2973 16.88 57.3506 16.88C57.6173 16.88 57.7906 16.76 57.8706 16.52H61.8306V18.76H46.2306ZM47.9906 21.04V28H45.7506V24.16C45.964 24.0533 46.0706 23.88 46.0706 23.64C46.0706 23.56 46.044 23.48 45.9906 23.4C45.964 23.32 45.8973 23.2533 45.7906 23.2C45.7106 23.12 45.6173 23.08 45.5106 23.08C45.4573 23.08 45.3906 23.1067 45.3106 23.16C45.2306 23.1867 45.164 23.2267 45.1106 23.28C45.084 23.3333 45.044 23.4 44.9906 23.48C44.964 23.5333 44.9506 23.5867 44.9506 23.64C44.9506 23.88 45.0706 24.0533 45.3106 24.16V28H43.0706V19.84H44.0706L44.7506 20.84L44.8706 21.04H47.9906ZM73.6853 7.48H71.0453V6.56H73.1653L73.2453 6.48L74.0053 5.36H75.9653V6.28H74.4853L74.3653 6.48L73.6853 7.48ZM69.5653 1.32V3.04L70.5253 3.36V1.68L69.5653 1.32ZM68.1253 1.32V3.04L69.0853 3.36V1.68L68.1253 1.32ZM64.1253 3.76C64.3387 3.54667 65.592 2.29333 67.8853 -1.90735e-06H82.8853V2.24H79.4853C79.3787 2 79.2053 1.88 78.9653 1.88C78.8053 1.88 78.672 1.94667 78.5653 2.08C78.4587 2.18667 78.4053 2.32 78.4053 2.48C78.4053 2.61333 78.4587 2.73333 78.5653 2.84C78.672 2.94667 78.8053 3 78.9653 3C79.2053 3 79.3787 2.89333 79.4853 2.68H82.8853V9.52H80.6453V6.68C80.8853 6.57333 81.0053 6.4 81.0053 6.16C81.0053 6.02667 80.9387 5.90667 80.8053 5.8C80.6987 5.66667 80.5787 5.6 80.4453 5.6C80.3387 5.6 80.232 5.62667 80.1253 5.68C80.0453 5.73333 79.9787 5.81333 79.9253 5.92C79.8987 6 79.8853 6.08 79.8853 6.16C79.8853 6.4 79.992 6.57333 80.2053 6.68V9.52H77.9653V4.92H73.7653L73.6853 5L72.9253 6.12H71.0453V4.92H69.8853L69.0453 5.76H67.1653C67.0853 5.54667 66.9253 5.44 66.6853 5.44C66.5253 5.44 66.392 5.49333 66.2853 5.6C66.1787 5.70667 66.1253 5.84 66.1253 6C66.1253 6.16 66.1787 6.29333 66.2853 6.4C66.392 6.50667 66.5253 6.56 66.6853 6.56C66.9253 6.56 67.0853 6.45333 67.1653 6.24H69.0453V9.52H64.1253V3.76ZM75.9653 25.56V28H73.7253V23.04C73.9653 22.9333 74.0853 22.76 74.0853 22.52C74.0853 22.3867 74.0187 22.2667 73.8853 22.16C73.7787 22.0267 73.6587 21.96 73.5253 21.96C73.4187 21.96 73.312 21.9867 73.2053 22.04C73.1253 22.0933 73.0587 22.16 73.0053 22.24C72.9787 22.32 72.9653 22.4133 72.9653 22.52C72.9653 22.76 73.072 22.9333 73.2853 23.04V28H71.0453V8.4H74.1653L74.2853 8.2L74.9653 7.2H75.9653V25.56ZM95.46 13.32L94.5 12.96V14.68L95.46 15.04V13.32ZM99.02 28V18.48H101.26V20.96C101.047 21.0667 100.94 21.24 100.94 21.48C100.94 21.5867 100.953 21.68 100.98 21.76C101.033 21.84 101.1 21.9067 101.18 21.96C101.287 22.0133 101.393 22.04 101.5 22.04C101.633 22.04 101.753 21.9867 101.86 21.88C101.993 21.7467 102.06 21.6133 102.06 21.48C102.06 21.24 101.94 21.0667 101.7 20.96V18.48H103.94V28H99.02ZM101.98 6.56L101.02 6.2V7.92L101.98 8.24V6.56ZM100.54 6.56L99.58 6.2V7.92L100.54 8.24V6.56ZM87.98 16.92H90.1V17.8H87.46L86.78 16.8L86.66 16.6H85.18V15.72H87.14L87.9 16.8L87.98 16.92ZM92.82 5.36L90.1 8.08V11.56H97.02V16.44H88.22L87.46 15.36L87.38 15.24H85.18V14.24H89.06C89.1667 14.4533 89.34 14.56 89.58 14.56C89.7133 14.56 89.8333 14.5067 89.94 14.4C90.0733 14.2933 90.14 14.16 90.14 14C90.14 13.84 90.0733 13.7067 89.94 13.6C89.8333 13.4933 89.7133 13.44 89.58 13.44C89.34 13.44 89.1667 13.5467 89.06 13.76H85.18V6.04L90.5 0.719998L91.22 -1.90735e-06H103.94V2.24H100.42C100.313 2 100.14 1.88 99.9 1.88C99.7667 1.88 99.6333 1.94667 99.5 2.08C99.3933 2.18667 99.34 2.32 99.34 2.48C99.34 2.61333 99.3933 2.73333 99.5 2.84C99.6333 2.94667 99.7667 3 99.9 3C100.14 3 100.313 2.89333 100.42 2.68H103.94V3.68H102.14L102.06 3.8L101.3 4.92H90.3C90.1933 4.68 90.02 4.56 89.78 4.56C89.62 4.56 89.4867 4.62667 89.38 4.76C89.2733 4.86667 89.22 5 89.22 5.16C89.22 5.29333 89.2733 5.41333 89.38 5.52C89.4867 5.62667 89.62 5.68 89.78 5.68C90.02 5.68 90.1933 5.57333 90.3 5.36H92.82ZM90.1 22.64H88.9V20.56H90.1V22.64ZM88.9 23.08H98.58V25.32H95.18C95.0733 25.08 94.9 24.96 94.66 24.96C94.5267 24.96 94.3933 25.0267 94.26 25.16C94.1533 25.2667 94.1 25.3867 94.1 25.52C94.1 25.6 94.1133 25.68 94.14 25.76C94.1933 25.84 94.2467 25.9067 94.3 25.96C94.3533 25.9867 94.4067 26.0133 94.46 26.04C94.54 26.0667 94.6067 26.08 94.66 26.08C94.9 26.08 95.0733 25.9733 95.18 25.76H98.58V28H85.18V17.52H86.18L86.86 18.52L86.98 18.72H90.1V20.08H88.42V23.08H88.9ZM103.94 7.08V9.52H99.02V5.36H101.54L101.62 5.28L102.38 4.16H103.94V7.08ZM109.875 15.44L111.155 15.4V22.6L109.875 22.12V15.44ZM123.435 19.92L122.475 19.56V21.28L123.435 21.64V19.92ZM121.995 19.92L121.035 19.56V21.28L121.995 21.64V19.92ZM122.715 6.28H120.075V5.36H122.195L122.275 5.28L123.035 4.16H124.995V5.04H123.515L123.395 5.24L122.715 6.28ZM120.075 18.48H124.995V25.32H121.555C121.448 25.1067 121.275 25 121.035 25C120.901 25 120.768 25.0533 120.635 25.16C120.528 25.2667 120.475 25.4 120.475 25.56C120.475 25.6933 120.528 25.8267 120.635 25.96C120.768 26.0667 120.901 26.12 121.035 26.12C121.275 26.12 121.448 26 121.555 25.76H124.995V28H108.915V26.04C109.128 25.96 109.235 25.8 109.235 25.56C109.235 25.4 109.181 25.2667 109.075 25.16C108.968 25.0533 108.835 25 108.675 25C108.595 25 108.501 25.0267 108.395 25.08C108.315 25.1067 108.248 25.1733 108.195 25.28C108.141 25.36 108.115 25.4533 108.115 25.56C108.115 25.8 108.235 25.96 108.475 26.04V28H106.235V6.04L111.555 0.719998L112.275 -1.90735e-06H124.995V2.24H121.315C121.208 2 121.035 1.88 120.795 1.88C120.661 1.88 120.528 1.94667 120.395 2.08C120.288 2.18667 120.235 2.32 120.235 2.48C120.235 2.61333 120.288 2.73333 120.395 2.84C120.528 2.94667 120.661 3 120.795 3C121.035 3 121.208 2.89333 121.315 2.68H124.995V3.68H122.795L122.715 3.8L121.955 4.92H114.315L111.595 7.64H108.475V10.32C108.235 10.4 108.115 10.5733 108.115 10.84C108.115 10.9733 108.168 11.1067 108.275 11.24C108.408 11.3467 108.541 11.4 108.675 11.4C108.835 11.4 108.968 11.3467 109.075 11.24C109.181 11.1067 109.235 10.9733 109.235 10.84C109.235 10.5733 109.128 10.4 108.915 10.32V8.08H111.155V14.96H109.635H109.395V22.44L109.555 22.52L111.155 23.08H120.075V18.48ZM124.995 5.96V9.52H120.075V7.2H123.195L123.315 7L123.995 5.96H124.995ZM144.089 1.36L143.129 1V2.72L144.089 3.04V1.36ZM142.649 1.36L141.689 1V2.72L142.649 3.04V1.36ZM129.089 18.72H132.209V28H129.969V22.2C130.183 22.0933 130.289 21.92 130.289 21.68C130.289 21.52 130.236 21.3867 130.129 21.28C130.023 21.1733 129.889 21.12 129.729 21.12C129.676 21.12 129.609 21.1333 129.529 21.16C129.449 21.1867 129.383 21.2267 129.329 21.28C129.303 21.3333 129.263 21.4 129.209 21.48C129.183 21.5333 129.169 21.6 129.169 21.68C129.169 21.92 129.289 22.0933 129.529 22.2V28H127.289V17.52H128.289L128.969 18.52L129.089 18.72ZM130.089 16.92H132.209V17.8H129.569L128.889 16.8L128.769 16.6H127.289V15.72H129.249L130.009 16.8L130.089 16.92ZM146.049 28H141.129V16.92H143.369V19.92C143.156 20.0267 143.049 20.2 143.049 20.44C143.049 20.5733 143.103 20.7067 143.209 20.84C143.316 20.9467 143.436 21 143.569 21C143.729 21 143.863 20.9467 143.969 20.84C144.103 20.7067 144.169 20.5733 144.169 20.44C144.169 20.2 144.049 20.0267 143.809 19.92V16.92H146.049V28ZM133.169 13.32L132.209 12.96V14.68L133.169 15.04V13.32ZM143.049 11.2L142.969 11.08H141.129V-1.90735e-06H146.049V12.28H143.809V9.32C144.049 9.21333 144.169 9.04 144.169 8.8C144.169 8.66667 144.103 8.54667 143.969 8.44C143.863 8.30667 143.743 8.24 143.609 8.24C143.503 8.24 143.396 8.26667 143.289 8.32C143.209 8.37333 143.143 8.45333 143.089 8.56C143.063 8.64 143.049 8.72 143.049 8.8C143.049 9.04 143.156 9.21333 143.369 9.32V11.68L143.049 11.2ZM127.289 2.44V-1.90735e-06H129.529V2.6C129.289 2.70666 129.169 2.88 129.169 3.12C129.169 3.25333 129.223 3.38666 129.329 3.52C129.463 3.62666 129.596 3.68 129.729 3.68C129.889 3.68 130.023 3.62666 130.129 3.52C130.236 3.38666 130.289 3.25333 130.289 3.12C130.289 2.88 130.183 2.70666 129.969 2.6V-1.90735e-06H132.209V11.56H142.729L143.489 12.64L143.529 12.76H146.049V16.44H130.329L129.569 15.36L129.489 15.24H127.289V2.44Z" fill="black"/>
</svg>
