<svg width="239" height="58" viewBox="0 0 239 58" fill="none" xmlns="http://www.w3.org/2000/svg">
<path d="M8.23063 31.5294L6.55063 30.8994V33.9094L8.23063 34.5394V31.5294ZM5.71063 31.5294L4.03063 30.8994V33.9094L5.71063 34.5394V31.5294ZM9.21063 37.8294V39.3694H6.62063L6.41063 39.7194L5.15063 41.4694H0.600625V39.9294H4.31063L4.45063 39.7894L5.71063 37.8294H9.21063ZM17.2606 49.5894H0.600625V43.0794H6.06063L6.27063 42.7294L7.46063 40.9794H17.2606V44.8994H10.0506C9.86396 44.526 9.56063 44.3394 9.14063 44.3394C8.90729 44.3394 8.67396 44.4327 8.44063 44.6194C8.25396 44.806 8.16063 45.0394 8.16063 45.3194C8.16063 45.5527 8.25396 45.786 8.44063 46.0194C8.67396 46.206 8.90729 46.2994 9.14063 46.2994C9.56063 46.2994 9.86396 46.0894 10.0506 45.6694H17.2606V49.5894ZM0.600625 4.85935V0.589352H4.52063V7.79936C4.10063 7.93935 3.89063 8.21935 3.89063 8.63935C3.89063 8.82602 3.93729 8.98935 4.03063 9.12935C4.12396 9.26935 4.24063 9.38602 4.38063 9.47935C4.56729 9.57269 4.73063 9.61935 4.87063 9.61935C5.15063 9.61935 5.38396 9.52602 5.57063 9.33935C5.75729 9.15269 5.85063 8.91935 5.85063 8.63935C5.85063 8.21935 5.66396 7.93935 5.29063 7.79936V0.589352H9.21063V36.9894H5.29063L5.22063 37.1994L3.89063 39.1594H0.600625V4.85935ZM26.4252 43.4994V46.5094L28.1052 47.0694V44.1294L26.4252 43.4994ZM23.9052 43.4994V46.5094L25.5852 47.0694V44.1294L23.9052 43.4994ZM23.8352 33.6994H21.2452V32.0894H24.6752L26.0052 34.0494L26.1452 34.2594H29.8552V35.7994H25.2352L24.0452 34.0494L23.8352 33.6994ZM47.1452 30.8994V27.9594L45.4652 27.3294V30.3394L47.1452 30.8994ZM40.7052 40.2094L41.6152 39.3694L45.4652 35.4494V34.2594H49.1752C49.3618 34.6327 49.6652 34.8194 50.0852 34.8194C50.3652 34.8194 50.5985 34.726 50.7852 34.5394C50.9718 34.3527 51.0652 34.1194 51.0652 33.8394C51.0652 33.5594 50.9718 33.326 50.7852 33.1394C50.5985 32.9527 50.3652 32.8594 50.0852 32.8594C49.6652 32.8594 49.3618 33.046 49.1752 33.4194H26.5652L25.2352 31.4594L25.0952 31.3194H21.2452V24.8094H48.2652L49.5952 26.7694L49.6652 26.9794H54.0752V39.0194L48.1952 44.8994H43.3652C43.2252 44.526 42.9452 44.3394 42.5252 44.3394C42.2452 44.3394 41.9885 44.4327 41.7552 44.6194C41.5685 44.806 41.4752 45.0394 41.4752 45.3194C41.4752 45.4594 41.5218 45.6227 41.6152 45.8094C41.7552 45.9494 41.8952 46.066 42.0352 46.1594C42.1752 46.2527 42.3385 46.2994 42.5252 46.2994C42.9452 46.2994 43.2252 46.0894 43.3652 45.6694H47.3552L43.5052 49.5894H21.2452V35.3094H22.9952L24.1852 37.0594L24.3952 37.4094H29.8552V40.9794H39.9352L40.7052 40.2094ZM25.4452 21.3094H21.2452V17.3894H29.3652C29.5518 17.8094 29.8552 18.0194 30.2752 18.0194C30.5085 18.0194 30.7185 17.926 30.9052 17.7394C31.1385 17.506 31.2552 17.2727 31.2552 17.0394C31.2552 16.8527 31.2085 16.6894 31.1152 16.5494C31.0218 16.3627 30.8818 16.246 30.6952 16.1994C30.5552 16.106 30.4152 16.0594 30.2752 16.0594C29.8552 16.0594 29.5518 16.246 29.3652 16.6194H21.2452V12.6994H54.0752V26.1394H50.0852L48.8252 24.1794L48.6852 24.0394H45.4652V21.3094H25.4452ZM70.1309 39.4394V42.4494L71.8109 43.0794V40.0694L70.1309 39.4394ZM67.6809 39.4394V42.4494L69.3609 43.0794V40.0694L67.6809 39.4394ZM58.0909 45.8094V44.2694H61.5209L62.8509 46.1594L62.9909 46.3694H66.7009V47.9094H62.0809L60.8909 46.1594L60.6809 45.8094H58.0909ZM71.4609 22.0794L70.8309 22.7094L67.4709 26.0694H62.0109V30.7594C61.5909 30.946 61.3809 31.2494 61.3809 31.6694C61.3809 31.856 61.4275 32.0194 61.5209 32.1594C61.6142 32.2994 61.7309 32.416 61.8709 32.5094C62.0575 32.6027 62.2209 32.6494 62.3609 32.6494C62.6409 32.6494 62.8742 32.556 63.0609 32.3694C63.2475 32.1827 63.3409 31.9494 63.3409 31.6694C63.3409 31.2494 63.1542 30.946 62.7809 30.7594V26.8394H66.7009V36.9894H85.1109L86.4409 38.8794L86.5109 39.0894H90.9209V45.5294H63.4109L62.0809 43.6394L61.9409 43.4294H58.0909V23.3394L68.6609 12.6994H90.9209V16.6194H83.7809C83.5942 16.246 83.2909 16.0594 82.8709 16.0594C82.7309 16.0594 82.5909 16.106 82.4509 16.1994C82.3109 16.246 82.1709 16.3627 82.0309 16.5494C81.9375 16.6894 81.8909 16.8527 81.8909 17.0394C81.8909 17.1794 81.9375 17.3427 82.0309 17.5294C82.1709 17.6694 82.3109 17.786 82.4509 17.8794C82.5909 17.9727 82.7309 18.0194 82.8709 18.0194C83.2909 18.0194 83.5942 17.8094 83.7809 17.3894H90.9209V38.2494H87.0009V26.9794C87.4209 26.7927 87.6309 26.4894 87.6309 26.0694C87.6309 25.836 87.5142 25.626 87.2809 25.4394C87.0942 25.206 86.8842 25.0894 86.6509 25.0894C86.4642 25.0894 86.2775 25.136 86.0909 25.2294C85.9509 25.3227 85.8342 25.4627 85.7409 25.6494C85.6942 25.7894 85.6709 25.9294 85.6709 26.0694C85.6709 26.4894 85.8575 26.7927 86.2309 26.9794V37.1994L85.6709 36.3594L85.5309 36.1494H82.3109V21.3094H72.2309L71.4609 22.0794ZM66.7009 49.5194V57.6394H62.7809V54.0694C63.1542 53.8827 63.3409 53.5794 63.3409 53.1594C63.3409 52.926 63.2475 52.6927 63.0609 52.4594C62.8742 52.2727 62.6409 52.1794 62.3609 52.1794C62.1275 52.1794 61.8942 52.2727 61.6609 52.4594C61.4742 52.6927 61.3809 52.926 61.3809 53.1594C61.3809 53.5794 61.5909 53.8827 62.0109 54.0694V57.6394H58.0909V47.4194H59.8409L61.0309 49.1694L61.2409 49.5194H66.7009ZM99.8366 22.0794H103.547V23.6894H98.9266L97.7366 21.9394L97.5266 21.5894H94.9366V19.9794H98.3666L99.6966 21.9394L99.8366 22.0794ZM94.9366 12.6994H119.157V16.6194H111.457C111.27 16.246 110.967 16.0594 110.547 16.0594C110.313 16.0594 110.08 16.1527 109.847 16.3394C109.66 16.526 109.567 16.7594 109.567 17.0394C109.567 17.1794 109.613 17.3427 109.707 17.5294C109.847 17.6694 109.987 17.786 110.127 17.8794C110.267 17.9727 110.407 18.0194 110.547 18.0194C110.967 18.0194 111.27 17.8094 111.457 17.3894H119.157V21.3094H100.257L98.9266 19.3494L98.7866 19.2094H94.9366V12.6994ZM104.457 15.8494L102.777 15.2194V18.2294L104.457 18.7894V15.8494ZM101.937 15.8494L100.257 15.2194V18.2294L101.937 18.7894V15.8494ZM114.397 40.2094L118.387 36.2194H123.917V33.3494C124.29 33.2094 124.477 32.9294 124.477 32.5094C124.477 32.2294 124.36 31.996 124.127 31.8094C123.94 31.6227 123.707 31.5294 123.427 31.5294C123.193 31.5294 122.983 31.6227 122.797 31.8094C122.61 31.996 122.517 32.2294 122.517 32.5094C122.517 32.9294 122.703 33.2094 123.077 33.3494V35.4494H119.157V28.8694H127.767V39.0194L117.197 49.5894H94.9366V45.6694H102.427C102.613 46.0894 102.917 46.2994 103.337 46.2994C103.57 46.2994 103.78 46.206 103.967 46.0194C104.2 45.786 104.317 45.5527 104.317 45.3194C104.317 45.0394 104.2 44.806 103.967 44.6194C103.78 44.4327 103.57 44.3394 103.337 44.3394C102.917 44.3394 102.613 44.526 102.427 44.8994H94.9366V23.1994H96.6866L97.8766 24.9494L98.0866 25.2994H103.547V40.9794H113.627L114.397 40.2094ZM94.9366 11.9294V0.589352H98.8566V5.20936C98.4366 5.39602 98.2266 5.69935 98.2266 6.11935C98.2266 6.35268 98.3199 6.58602 98.5066 6.81936C98.7399 7.00602 98.9732 7.09935 99.2066 7.09935C99.4866 7.09935 99.7199 7.00602 99.9066 6.81936C100.093 6.58602 100.187 6.35268 100.187 6.11935C100.187 5.69935 99.9999 5.39602 99.6266 5.20936V0.589352H103.547V11.9294H94.9366ZM139.412 41.6094L137.732 40.9794V43.9894L139.412 44.6194V41.6094ZM136.892 41.6094L135.212 40.9794V43.9894L136.892 44.6194V41.6094ZM135.982 38.2494H140.392V49.5894H131.782V36.1494H134.512L135.842 38.1094L135.982 38.2494ZM161.182 19.9794H164.612V21.5894H162.022L161.812 21.9394L160.622 23.6894H156.002V22.0794H159.712L159.852 21.9394L161.182 19.9794ZM164.612 40.9794V44.8994H158.942C158.756 44.526 158.452 44.3394 158.032 44.3394C157.799 44.3394 157.566 44.4327 157.332 44.6194C157.146 44.806 157.052 45.0394 157.052 45.3194C157.052 45.4127 157.076 45.5294 157.122 45.6694C157.169 45.8094 157.239 45.926 157.332 46.0194C157.426 46.066 157.519 46.136 157.612 46.2294C157.752 46.276 157.892 46.2994 158.032 46.2994C158.452 46.2994 158.756 46.0894 158.942 45.6694H164.612V49.5894H141.162V40.9794H164.612ZM160.342 12.6994H164.612V16.6194H157.682C157.496 16.246 157.192 16.0594 156.772 16.0594C156.539 16.0594 156.306 16.1527 156.072 16.3394C155.886 16.526 155.792 16.7594 155.792 17.0394C155.792 17.1794 155.839 17.3427 155.932 17.5294C156.026 17.6694 156.142 17.786 156.282 17.8794C156.469 17.9727 156.632 18.0194 156.772 18.0194C157.192 18.0194 157.496 17.8094 157.682 17.3894H164.612V19.2094H160.762L160.622 19.3494L159.292 21.3094H140.742C140.556 20.936 140.252 20.7494 139.832 20.7494C139.552 20.7494 139.319 20.8427 139.132 21.0294C138.946 21.216 138.852 21.4494 138.852 21.7294C138.852 21.9627 138.946 22.196 139.132 22.4294C139.319 22.616 139.552 22.7094 139.832 22.7094C140.252 22.7094 140.556 22.4994 140.742 22.0794H145.152L140.392 26.8394V28.8694H156.002V25.2994H161.462L161.672 24.9494L162.862 23.1994H164.612V37.4794H136.402L135.072 35.5194L134.932 35.3794H131.782V23.3394L142.352 12.6994H160.342ZM168.628 42.3094V40.7694H171.218L171.428 40.4194L172.618 38.5994H177.238V40.2094H173.528L173.388 40.3494L172.058 42.3094H168.628ZM185.148 15.8494L183.468 15.2194V18.2294L185.148 18.7894V15.8494ZM182.628 15.8494L180.948 15.2194V18.2294L182.628 18.7894V15.8494ZM181.998 22.0794L177.238 26.8394V36.9894H171.778L171.568 37.3394L170.378 39.1594H168.628V23.3394L169.888 22.0794L179.198 12.6994H201.458V16.6194H197.118C196.931 16.246 196.628 16.0594 196.208 16.0594C195.975 16.0594 195.741 16.1527 195.508 16.3394C195.321 16.526 195.228 16.7594 195.228 17.0394C195.228 17.2727 195.321 17.506 195.508 17.7394C195.741 17.926 195.975 18.0194 196.208 18.0194C196.628 18.0194 196.931 17.8094 197.118 17.3894H201.458V21.3094H177.588C177.401 20.936 177.098 20.7494 176.678 20.7494C176.398 20.7494 176.165 20.8427 175.978 21.0294C175.791 21.216 175.698 21.4494 175.698 21.7294C175.698 21.9627 175.791 22.196 175.978 22.4294C176.165 22.616 176.398 22.7094 176.678 22.7094C177.098 22.7094 177.401 22.4994 177.588 22.0794H181.998ZM192.848 40.9794V36.9894H196.768V40.5594C196.395 40.746 196.208 41.0494 196.208 41.4694C196.208 41.6094 196.231 41.7727 196.278 41.9594C196.371 42.0994 196.488 42.216 196.628 42.3094C196.815 42.4027 197.001 42.4494 197.188 42.4494C197.328 42.4494 197.445 42.426 197.538 42.3794C197.678 42.286 197.795 42.216 197.888 42.1694C197.981 42.076 198.051 41.9594 198.098 41.8194C198.145 41.6794 198.168 41.5627 198.168 41.4694C198.168 41.0494 197.958 40.746 197.538 40.5594V36.9894H201.458V41.2594V49.5894H168.628V45.6694H175.208C175.348 46.0894 175.651 46.2994 176.118 46.2994C176.351 46.2994 176.561 46.206 176.748 46.0194C176.981 45.786 177.098 45.5527 177.098 45.3194C177.098 45.0394 176.981 44.806 176.748 44.6194C176.561 44.4327 176.351 44.3394 176.118 44.3394C175.651 44.3394 175.348 44.526 175.208 44.8994H168.628V43.0794H172.478L172.618 42.9394L173.948 40.9794H192.848ZM234.874 21.9394L233.194 21.3094V24.3194L234.874 24.8794V21.9394ZM232.354 21.9394L230.674 21.3094V24.3194L232.354 24.8794V21.9394ZM214.084 25.2994V49.5894H210.164V35.3094C210.537 35.1227 210.724 34.8194 210.724 34.3994C210.724 34.166 210.63 33.956 210.444 33.7694C210.257 33.536 210.024 33.4194 209.744 33.4194C209.604 33.4194 209.44 33.466 209.254 33.5594C209.114 33.6527 208.997 33.7927 208.904 33.9794C208.81 34.1194 208.764 34.2594 208.764 34.3994C208.764 34.8194 208.974 35.1227 209.394 35.3094V49.5894H205.474V23.1994H207.224L208.414 24.9494L208.624 25.2994H214.084ZM210.374 22.0794H214.084V23.6894H209.464L208.274 21.9394L208.064 21.5894H205.474V19.9794H208.904L210.234 21.9394L210.374 22.0794ZM209.674 12.6994H238.304V16.6194H229.554C229.367 16.246 229.064 16.0594 228.644 16.0594C228.41 16.0594 228.177 16.1527 227.944 16.3394C227.757 16.526 227.664 16.7594 227.664 17.0394C227.664 17.1794 227.71 17.3427 227.804 17.5294C227.897 17.6694 228.014 17.786 228.154 17.8794C228.34 17.9727 228.504 18.0194 228.644 18.0194C229.064 18.0194 229.367 17.8094 229.554 17.3894H238.304V49.5894H234.384V41.8194C234.804 41.6794 235.014 41.376 235.014 40.9094C235.014 40.676 234.897 40.466 234.664 40.2794C234.477 40.046 234.244 39.9294 233.964 39.9294C233.73 39.9294 233.52 40.046 233.334 40.2794C233.147 40.466 233.054 40.676 233.054 40.9094C233.054 41.376 233.24 41.6794 233.614 41.8194V49.5894H229.694V21.3094H210.794L209.464 19.3494L209.324 19.2094H205.474V10.5994H208.204L209.534 12.5594L209.674 12.6994ZM205.474 4.85935V0.589352H214.084V11.9294H210.094L208.764 9.96935L208.624 9.75936H205.474V4.85935Z" fill="white"/>
</svg>
