<svg width="187" height="187" viewBox="0 0 187 187" fill="none" xmlns="http://www.w3.org/2000/svg">
<circle cx="93.5" cy="93.5" r="93.5" fill="#7461BC"/>
<path d="M23.7504 77.68L22.7904 77.36V79.04L23.7504 79.4V77.68ZM22.3104 77.68L21.3504 77.36V79.04L22.3104 79.4V77.68ZM24.4704 84.08H25.7104V94.48H24.4704V84.08ZM23.7104 97.28H25.7104V98.16H24.2304L24.1104 98.36L23.3904 99.4H20.7904V98.48H22.9104L22.9904 98.4L23.7104 97.28ZM33.9104 96.64L34.1904 96.36L34.6304 95.92V92.16H36.8704V93.76C36.657 93.84 36.5504 94 36.5504 94.24C36.5504 94.4 36.6037 94.5333 36.7104 94.64C36.817 94.7467 36.9504 94.8 37.1104 94.8C37.2704 94.8 37.4037 94.7467 37.5104 94.64C37.617 94.5333 37.6704 94.4 37.6704 94.24C37.6704 94 37.5504 93.84 37.3104 93.76V92.16H39.5504V97.96L33.5104 104H20.7904V101.76H25.7104C25.817 102 25.9904 102.12 26.2304 102.12C26.3104 102.12 26.3904 102.093 26.4704 102.04C26.5504 101.987 26.617 101.92 26.6704 101.84C26.7504 101.733 26.7904 101.64 26.7904 101.56C26.7904 101.4 26.7237 101.267 26.5904 101.16C26.4837 101.053 26.3637 101 26.2304 101C25.9904 101 25.817 101.107 25.7104 101.32H20.7904V100.28H23.9104L24.0304 100.08L24.7104 99.08H34.4304C34.537 99.32 34.7104 99.44 34.9504 99.44C35.1104 99.44 35.2437 99.3867 35.3504 99.28C35.457 99.1467 35.5104 99.0133 35.5104 98.88C35.5104 98.72 35.457 98.5867 35.3504 98.48C35.2437 98.3733 35.1104 98.32 34.9504 98.32C34.7104 98.32 34.537 98.4267 34.4304 98.64H31.9104L33.9104 96.64ZM20.7904 98.04V76H25.7104V83.64H24.0304V94.96H25.7104V96.8H23.4704L23.4304 96.92L22.6704 98.04H20.7904ZM58.6451 81.24L57.6851 80.92V82.6L58.6451 82.96V81.24ZM57.2051 81.24L56.2451 80.92V82.6L57.2051 82.96V81.24ZM43.3251 94.92H41.8451V94H43.8051L44.5651 95.12L44.6451 95.24H46.7651V96.12H44.1251L43.4451 95.12L43.3251 94.92ZM58.4051 95.24H60.6051V104H55.6851V95.24H57.9251V97.04C57.7117 97.1467 57.6051 97.32 57.6051 97.56C57.6051 97.72 57.6584 97.8533 57.7651 97.96C57.8717 98.0667 58.0051 98.12 58.1651 98.12C58.3251 98.12 58.4584 98.0667 58.5651 97.96C58.6717 97.8533 58.7251 97.72 58.7251 97.56C58.7251 97.32 58.6184 97.1467 58.4051 97.04V95.24ZM56.0851 93L57.0451 93.32V91.64L56.0851 91.28V93ZM57.6051 89.48L57.5251 89.4H55.6851V80.92H49.9251L48.5651 82.28L47.2051 83.64H44.0851V86.32C43.8451 86.4 43.7251 86.56 43.7251 86.8C43.7251 86.96 43.7784 87.1067 43.8851 87.24C44.0184 87.3467 44.1517 87.4 44.2851 87.4C44.4451 87.4 44.5784 87.3467 44.6851 87.24C44.7917 87.1067 44.8451 86.96 44.8451 86.8C44.8451 86.56 44.7384 86.4 44.5251 86.32V84.08H46.7651V89.84H57.2851L58.0451 90.96L58.0851 91.08H60.6051V94.76H44.8851L44.1251 93.64L44.0451 93.56H41.8451V92.52H45.3651C45.4717 92.76 45.6451 92.88 45.8851 92.88C46.0184 92.88 46.1384 92.8267 46.2451 92.72C46.3784 92.5867 46.4451 92.4533 46.4451 92.32C46.4451 92.2133 46.4184 92.12 46.3651 92.04C46.3117 91.9333 46.2317 91.8667 46.1251 91.84C46.0451 91.7867 45.9651 91.76 45.8851 91.76C45.6451 91.76 45.4717 91.8667 45.3651 92.08H41.8451V82.04L47.1651 76.72L47.8851 76H60.6051V78.24H58.6451C58.5384 78 58.3651 77.88 58.1251 77.88C57.9917 77.88 57.8584 77.9467 57.7251 78.08C57.6184 78.1867 57.5651 78.32 57.5651 78.48C57.5651 78.6133 57.6184 78.7333 57.7251 78.84C57.8584 78.9467 57.9917 79 58.1251 79C58.3651 79 58.5384 78.8933 58.6451 78.68H60.6051V90.6H58.3251L57.6051 89.48ZM46.7651 97.04V104H44.5251V101.76C44.7384 101.653 44.8451 101.48 44.8451 101.24C44.8451 101.16 44.8184 101.08 44.7651 101C44.7384 100.893 44.6717 100.813 44.5651 100.76C44.4851 100.707 44.3917 100.68 44.2851 100.68C44.1517 100.68 44.0184 100.747 43.8851 100.88C43.7784 100.987 43.7251 101.107 43.7251 101.24C43.7251 101.48 43.8451 101.653 44.0851 101.76V104H41.8451V95.84H42.8451L43.5251 96.84L43.6451 97.04H46.7651ZM69.7797 91.28V93L70.7397 93.32V91.64L69.7797 91.28ZM68.3797 91.28V93L69.3397 93.32V91.64L68.3797 91.28ZM64.3797 94.92H62.8997V94H64.8597L65.6197 95.12L65.6997 95.24H67.8197V96.12H65.1797L64.4997 95.12L64.3797 94.92ZM66.0597 94.76H65.9397L65.1797 93.64L65.0997 93.56H62.8997V82.04L68.9397 76H81.6597V78.24H78.0197C77.9397 78 77.7797 77.88 77.5397 77.88C77.3797 77.88 77.2464 77.9467 77.1397 78.08C77.0331 78.1867 76.9797 78.32 76.9797 78.48C76.9797 78.6133 77.0331 78.7333 77.1397 78.84C77.2464 78.9467 77.3797 79 77.5397 79C77.7797 79 77.9397 78.8933 78.0197 78.68H81.6597V90.6H79.4597V87.16C79.6731 87.08 79.7797 86.92 79.7797 86.68C79.7797 86.52 79.7131 86.3867 79.5797 86.28C79.4731 86.1467 79.3531 86.08 79.2197 86.08C79.1131 86.08 79.0064 86.12 78.8997 86.2C78.8197 86.2533 78.7531 86.32 78.6997 86.4C78.6731 86.48 78.6597 86.5733 78.6597 86.68C78.6597 86.92 78.7664 87.08 78.9797 87.16V90L78.6597 89.48L78.5797 89.4H76.7397V80.92H68.0197C67.9131 80.68 67.7397 80.56 67.4997 80.56C67.3397 80.56 67.2064 80.6267 67.0997 80.76C66.9931 80.8667 66.9397 81 66.9397 81.16C66.9397 81.2933 66.9931 81.4133 67.0997 81.52C67.2064 81.6267 67.3397 81.68 67.4997 81.68C67.7397 81.68 67.9131 81.5733 68.0197 81.36H70.5397L67.8197 84.08V89.84H78.3397L79.0997 90.96L79.1397 91.08H81.6597V92.08H77.6997C77.6197 91.8667 77.4464 91.76 77.1797 91.76C77.0464 91.76 76.9131 91.8133 76.7797 91.92C76.6731 92.0267 76.6197 92.16 76.6197 92.32C76.6197 92.4 76.6331 92.48 76.6597 92.56C76.7131 92.6133 76.7664 92.6667 76.8197 92.72C76.8731 92.7733 76.9264 92.8133 76.9797 92.84C77.0597 92.8667 77.1264 92.88 77.1797 92.88C77.4464 92.88 77.6197 92.76 77.6997 92.52H81.6597V94.76H66.0597ZM67.8197 97.04V104H65.5797V100.16C65.7931 100.053 65.8997 99.88 65.8997 99.64C65.8997 99.56 65.8731 99.48 65.8197 99.4C65.7931 99.32 65.7264 99.2533 65.6197 99.2C65.5397 99.12 65.4464 99.08 65.3397 99.08C65.2864 99.08 65.2197 99.1067 65.1397 99.16C65.0597 99.1867 64.9931 99.2267 64.9397 99.28C64.9131 99.3333 64.8731 99.4 64.8197 99.48C64.7931 99.5333 64.7797 99.5867 64.7797 99.64C64.7797 99.88 64.8997 100.053 65.1397 100.16V104H62.8997V95.84H63.8997L64.5797 96.84L64.6997 97.04H67.8197ZM93.5144 83.48H90.8744V82.56H92.9944L93.0744 82.48L93.8344 81.36H95.7944V82.28H94.3144L94.1944 82.48L93.5144 83.48ZM89.3944 77.32V79.04L90.3544 79.36V77.68L89.3944 77.32ZM87.9544 77.32V79.04L88.9144 79.36V77.68L87.9544 77.32ZM83.9544 79.76C84.1678 79.5467 85.4211 78.2933 87.7144 76H102.714V78.24H99.3144C99.2078 78 99.0344 77.88 98.7944 77.88C98.6344 77.88 98.5011 77.9467 98.3944 78.08C98.2878 78.1867 98.2344 78.32 98.2344 78.48C98.2344 78.6133 98.2878 78.7333 98.3944 78.84C98.5011 78.9467 98.6344 79 98.7944 79C99.0344 79 99.2078 78.8933 99.3144 78.68H102.714V85.52H100.474V82.68C100.714 82.5733 100.834 82.4 100.834 82.16C100.834 82.0267 100.768 81.9067 100.634 81.8C100.528 81.6667 100.408 81.6 100.274 81.6C100.168 81.6 100.061 81.6267 99.9544 81.68C99.8744 81.7333 99.8078 81.8133 99.7544 81.92C99.7278 82 99.7144 82.08 99.7144 82.16C99.7144 82.4 99.8211 82.5733 100.034 82.68V85.52H97.7944V80.92H93.5944L93.5144 81L92.7544 82.12H90.8744V80.92H89.7144L88.8744 81.76H86.9944C86.9144 81.5467 86.7544 81.44 86.5144 81.44C86.3544 81.44 86.2211 81.4933 86.1144 81.6C86.0078 81.7067 85.9544 81.84 85.9544 82C85.9544 82.16 86.0078 82.2933 86.1144 82.4C86.2211 82.5067 86.3544 82.56 86.5144 82.56C86.7544 82.56 86.9144 82.4533 86.9944 82.24H88.8744V85.52H83.9544V79.76ZM95.7944 101.56V104H93.5544V99.04C93.7944 98.9333 93.9144 98.76 93.9144 98.52C93.9144 98.3867 93.8478 98.2667 93.7144 98.16C93.6078 98.0267 93.4878 97.96 93.3544 97.96C93.2478 97.96 93.1411 97.9867 93.0344 98.04C92.9544 98.0933 92.8878 98.16 92.8344 98.24C92.8078 98.32 92.7944 98.4133 92.7944 98.52C92.7944 98.76 92.9011 98.9333 93.1144 99.04V104H90.8744V84.4H93.9944L94.1144 84.2L94.7944 83.2H95.7944V101.56ZM115.289 89.32L114.329 88.96V90.68L115.289 91.04V89.32ZM118.849 104V94.48H121.089V96.96C120.876 97.0667 120.769 97.24 120.769 97.48C120.769 97.5867 120.782 97.68 120.809 97.76C120.862 97.84 120.929 97.9067 121.009 97.96C121.116 98.0133 121.222 98.04 121.329 98.04C121.462 98.04 121.582 97.9867 121.689 97.88C121.822 97.7467 121.889 97.6133 121.889 97.48C121.889 97.24 121.769 97.0667 121.529 96.96V94.48H123.769V104H118.849ZM121.809 82.56L120.849 82.2V83.92L121.809 84.24V82.56ZM120.369 82.56L119.409 82.2V83.92L120.369 84.24V82.56ZM107.809 92.92H109.929V93.8H107.289L106.609 92.8L106.489 92.6H105.009V91.72H106.969L107.729 92.8L107.809 92.92ZM112.649 81.36L109.929 84.08V87.56H116.849V92.44H108.049L107.289 91.36L107.209 91.24H105.009V90.24H108.889C108.996 90.4533 109.169 90.56 109.409 90.56C109.542 90.56 109.662 90.5067 109.769 90.4C109.902 90.2933 109.969 90.16 109.969 90C109.969 89.84 109.902 89.7067 109.769 89.6C109.662 89.4933 109.542 89.44 109.409 89.44C109.169 89.44 108.996 89.5467 108.889 89.76H105.009V82.04L110.329 76.72L111.049 76H123.769V78.24H120.249C120.142 78 119.969 77.88 119.729 77.88C119.596 77.88 119.462 77.9467 119.329 78.08C119.222 78.1867 119.169 78.32 119.169 78.48C119.169 78.6133 119.222 78.7333 119.329 78.84C119.462 78.9467 119.596 79 119.729 79C119.969 79 120.142 78.8933 120.249 78.68H123.769V79.68H121.969L121.889 79.8L121.129 80.92H110.129C110.022 80.68 109.849 80.56 109.609 80.56C109.449 80.56 109.316 80.6267 109.209 80.76C109.102 80.8667 109.049 81 109.049 81.16C109.049 81.2933 109.102 81.4133 109.209 81.52C109.316 81.6267 109.449 81.68 109.609 81.68C109.849 81.68 110.022 81.5733 110.129 81.36H112.649ZM109.929 98.64H108.729V96.56H109.929V98.64ZM108.729 99.08H118.409V101.32H115.009C114.902 101.08 114.729 100.96 114.489 100.96C114.356 100.96 114.222 101.027 114.089 101.16C113.982 101.267 113.929 101.387 113.929 101.52C113.929 101.6 113.942 101.68 113.969 101.76C114.022 101.84 114.076 101.907 114.129 101.96C114.182 101.987 114.236 102.013 114.289 102.04C114.369 102.067 114.436 102.08 114.489 102.08C114.729 102.08 114.902 101.973 115.009 101.76H118.409V104H105.009V93.52H106.009L106.689 94.52L106.809 94.72H109.929V96.08H108.249V99.08H108.729ZM123.769 83.08V85.52H118.849V81.36H121.369L121.449 81.28L122.209 80.16H123.769V83.08ZM129.704 91.44L130.984 91.4V98.6L129.704 98.12V91.44ZM143.264 95.92L142.304 95.56V97.28L143.264 97.64V95.92ZM141.824 95.92L140.864 95.56V97.28L141.824 97.64V95.92ZM142.544 82.28H139.904V81.36H142.024L142.104 81.28L142.864 80.16H144.824V81.04H143.344L143.224 81.24L142.544 82.28ZM139.904 94.48H144.824V101.32H141.384C141.277 101.107 141.104 101 140.864 101C140.73 101 140.597 101.053 140.464 101.16C140.357 101.267 140.304 101.4 140.304 101.56C140.304 101.693 140.357 101.827 140.464 101.96C140.597 102.067 140.73 102.12 140.864 102.12C141.104 102.12 141.277 102 141.384 101.76H144.824V104H128.744V102.04C128.957 101.96 129.064 101.8 129.064 101.56C129.064 101.4 129.01 101.267 128.904 101.16C128.797 101.053 128.664 101 128.504 101C128.424 101 128.33 101.027 128.224 101.08C128.144 101.107 128.077 101.173 128.024 101.28C127.97 101.36 127.944 101.453 127.944 101.56C127.944 101.8 128.064 101.96 128.304 102.04V104H126.064V82.04L131.384 76.72L132.104 76H144.824V78.24H141.144C141.037 78 140.864 77.88 140.624 77.88C140.49 77.88 140.357 77.9467 140.224 78.08C140.117 78.1867 140.064 78.32 140.064 78.48C140.064 78.6133 140.117 78.7333 140.224 78.84C140.357 78.9467 140.49 79 140.624 79C140.864 79 141.037 78.8933 141.144 78.68H144.824V79.68H142.624L142.544 79.8L141.784 80.92H134.144L131.424 83.64H128.304V86.32C128.064 86.4 127.944 86.5733 127.944 86.84C127.944 86.9733 127.997 87.1067 128.104 87.24C128.237 87.3467 128.37 87.4 128.504 87.4C128.664 87.4 128.797 87.3467 128.904 87.24C129.01 87.1067 129.064 86.9733 129.064 86.84C129.064 86.5733 128.957 86.4 128.744 86.32V84.08H130.984V90.96H129.464H129.224V98.44L129.384 98.52L130.984 99.08H139.904V94.48ZM144.824 81.96V85.52H139.904V83.2H143.024L143.144 83L143.824 81.96H144.824ZM163.918 77.36L162.958 77V78.72L163.918 79.04V77.36ZM162.478 77.36L161.518 77V78.72L162.478 79.04V77.36ZM148.918 94.72H152.038V104H149.798V98.2C150.012 98.0933 150.118 97.92 150.118 97.68C150.118 97.52 150.065 97.3867 149.958 97.28C149.852 97.1733 149.718 97.12 149.558 97.12C149.505 97.12 149.438 97.1333 149.358 97.16C149.278 97.1867 149.212 97.2267 149.158 97.28C149.132 97.3333 149.092 97.4 149.038 97.48C149.012 97.5333 148.998 97.6 148.998 97.68C148.998 97.92 149.118 98.0933 149.358 98.2V104H147.118V93.52H148.118L148.798 94.52L148.918 94.72ZM149.918 92.92H152.038V93.8H149.398L148.718 92.8L148.598 92.6H147.118V91.72H149.078L149.838 92.8L149.918 92.92ZM165.878 104H160.958V92.92H163.198V95.92C162.985 96.0267 162.878 96.2 162.878 96.44C162.878 96.5733 162.932 96.7067 163.038 96.84C163.145 96.9467 163.265 97 163.398 97C163.558 97 163.692 96.9467 163.798 96.84C163.932 96.7067 163.998 96.5733 163.998 96.44C163.998 96.2 163.878 96.0267 163.638 95.92V92.92H165.878V104ZM152.998 89.32L152.038 88.96V90.68L152.998 91.04V89.32ZM162.878 87.2L162.798 87.08H160.958V76H165.878V88.28H163.638V85.32C163.878 85.2133 163.998 85.04 163.998 84.8C163.998 84.6667 163.932 84.5467 163.798 84.44C163.692 84.3067 163.572 84.24 163.438 84.24C163.332 84.24 163.225 84.2667 163.118 84.32C163.038 84.3733 162.972 84.4533 162.918 84.56C162.892 84.64 162.878 84.72 162.878 84.8C162.878 85.04 162.985 85.2133 163.198 85.32V87.68L162.878 87.2ZM147.118 78.44V76H149.358V78.6C149.118 78.7067 148.998 78.88 148.998 79.12C148.998 79.2533 149.052 79.3867 149.158 79.52C149.292 79.6267 149.425 79.68 149.558 79.68C149.718 79.68 149.852 79.6267 149.958 79.52C150.065 79.3867 150.118 79.2533 150.118 79.12C150.118 78.88 150.012 78.7067 149.798 78.6V76H152.038V87.56H162.558L163.318 88.64L163.358 88.76H165.878V92.44H150.158L149.398 91.36L149.318 91.24H147.118V78.44Z" fill="white"/>
</svg>
